<svg width="101" height="20" viewBox="0 0 101 20" fill="none" xmlns="http://www.w3.org/2000/svg">
<path d="M6.088 19.288C4.952 19.288 3.904 19.08 2.944 18.664C2 18.232 1.224 17.624 0.616 16.84L2.776 14.248C3.24 14.856 3.728 15.32 4.24 15.64C4.752 15.944 5.304 16.096 5.896 16.096C7.48 16.096 8.272 15.168 8.272 13.312V5.32H2.368V2.2H12.136V13.096C12.136 15.176 11.624 16.728 10.6 17.752C9.576 18.776 8.072 19.288 6.088 19.288ZM21.8564 19.192C20.4804 19.192 19.2564 18.904 18.1844 18.328C17.1284 17.752 16.2884 16.968 15.6644 15.976C15.0564 14.968 14.7524 13.824 14.7524 12.544C14.7524 11.248 15.0564 10.104 15.6644 9.112C16.2884 8.104 17.1284 7.32 18.1844 6.76C19.2564 6.184 20.4804 5.896 21.8564 5.896C23.2164 5.896 24.4324 6.184 25.5044 6.76C26.5764 7.32 27.4164 8.096 28.0244 9.088C28.6324 10.08 28.9364 11.232 28.9364 12.544C28.9364 13.824 28.6324 14.968 28.0244 15.976C27.4164 16.968 26.5764 17.752 25.5044 18.328C24.4324 18.904 23.2164 19.192 21.8564 19.192ZM21.8564 16.12C22.4804 16.12 23.0404 15.976 23.5364 15.688C24.0324 15.4 24.4244 14.992 24.7124 14.464C25.0004 13.92 25.1444 13.28 25.1444 12.544C25.1444 11.792 25.0004 11.152 24.7124 10.624C24.4244 10.096 24.0324 9.688 23.5364 9.4C23.0404 9.112 22.4804 8.968 21.8564 8.968C21.2324 8.968 20.6724 9.112 20.1764 9.4C19.6804 9.688 19.2804 10.096 18.9764 10.624C18.6884 11.152 18.5444 11.792 18.5444 12.544C18.5444 13.28 18.6884 13.92 18.9764 14.464C19.2804 14.992 19.6804 15.4 20.1764 15.688C20.6724 15.976 21.2324 16.12 21.8564 16.12ZM39.0709 19.192C37.9349 19.192 36.9589 18.952 36.1429 18.472C35.3269 17.992 34.7029 17.264 34.2709 16.288C33.8389 15.296 33.6229 14.048 33.6229 12.544C33.6229 11.024 33.8469 9.776 34.2949 8.8C34.7589 7.824 35.3989 7.096 36.2149 6.616C37.0309 6.136 37.9829 5.896 39.0709 5.896C40.2869 5.896 41.3749 6.168 42.3349 6.712C43.3109 7.256 44.0789 8.024 44.6389 9.016C45.2149 10.008 45.5029 11.184 45.5029 12.544C45.5029 13.888 45.2149 15.056 44.6389 16.048C44.0789 17.04 43.3109 17.816 42.3349 18.376C41.3749 18.92 40.2869 19.192 39.0709 19.192ZM31.4389 19V1.192H35.1829V8.704L34.9429 12.52L35.0149 16.36V19H31.4389ZM38.4229 16.12C39.0469 16.12 39.5989 15.976 40.0789 15.688C40.5749 15.4 40.9669 14.992 41.2549 14.464C41.5589 13.92 41.7109 13.28 41.7109 12.544C41.7109 11.792 41.5589 11.152 41.2549 10.624C40.9669 10.096 40.5749 9.688 40.0789 9.4C39.5989 9.112 39.0469 8.968 38.4229 8.968C37.7989 8.968 37.2389 9.112 36.7429 9.4C36.2469 9.688 35.8549 10.096 35.5669 10.624C35.2789 11.152 35.1349 11.792 35.1349 12.544C35.1349 13.28 35.2789 13.92 35.5669 14.464C35.8549 14.992 36.2469 15.4 36.7429 15.688C37.2389 15.976 37.7989 16.12 38.4229 16.12ZM48.2733 19V2.2H52.1613V15.832H60.5853V19H48.2733ZM62.4936 19V6.088H66.2376V19H62.4936ZM64.3656 4.288C63.6776 4.288 63.1176 4.088 62.6856 3.688C62.2536 3.288 62.0376 2.792 62.0376 2.2C62.0376 1.608 62.2536 1.112 62.6856 0.711999C63.1176 0.311999 63.6776 0.111999 64.3656 0.111999C65.0536 0.111999 65.6136 0.303999 66.0456 0.688C66.4776 1.056 66.6936 1.536 66.6936 2.128C66.6936 2.752 66.4776 3.272 66.0456 3.688C65.6296 4.088 65.0696 4.288 64.3656 4.288ZM77.5604 5.896C78.5844 5.896 79.4964 6.104 80.2964 6.52C81.1124 6.92 81.7524 7.544 82.2164 8.392C82.6804 9.224 82.9124 10.296 82.9124 11.608V19H79.1684V12.184C79.1684 11.144 78.9364 10.376 78.4724 9.88C78.0244 9.384 77.3844 9.136 76.5524 9.136C75.9604 9.136 75.4244 9.264 74.9444 9.52C74.4804 9.76 74.1124 10.136 73.8404 10.648C73.5844 11.16 73.4564 11.816 73.4564 12.616V19H69.7124V6.088H73.2884V9.664L72.6164 8.584C73.0804 7.72 73.7444 7.056 74.6084 6.592C75.4724 6.128 76.4564 5.896 77.5604 5.896ZM89.4021 16.36L89.4981 11.8L95.5221 6.088H99.9861L94.2021 11.968L92.2581 13.552L89.4021 16.36ZM86.3061 19V1.192H90.0501V19H86.3061ZM95.9301 19L91.5621 13.576L93.9141 10.672L100.466 19H95.9301Z" fill="#FDB813"/>
</svg>
